<?xml version="1.0" encoding="UTF-8" standalone="no"?>
<svg
   version="1.1"
   id="Layer_1"
   viewBox="0 0 512.00001 512.00001"
   xml:space="preserve"
   width="512"
   height="512"
   xmlns="http://www.w3.org/2000/svg"
   xmlns:svg="http://www.w3.org/2000/svg"><defs
   id="defs25" />
<path
   style="fill:#f4bd64;stroke-width:0;stroke-dasharray:none"
   d="m 290.45719,111.12131 v -9.40504 h -9.40884 c -11.76605,0 -21.30369,9.53442 -21.30369,21.29508 v 9.40504 h 9.40884 c 11.76606,6.3e-4 21.30369,-9.53379 21.30369,-21.29508 z"
   id="path2" />
<path
   style="fill:#4eb79b;stroke-width:0;stroke-dasharray:none"
   d="m 274.95837,240.61182 c 3.46141,1.20376 7.25046,1.03188 10.55993,-0.54251 17.69285,-8.41126 29.9241,-26.44072 29.9241,-47.32892 0,-28.93074 -23.46271,-56.13148 -52.40515,-37.39328 -28.94244,-18.7382 -52.40514,8.46254 -52.40514,37.39328 0,20.88757 12.23123,38.91766 29.92409,47.32892 3.30947,1.57314 7.09852,1.74564 10.55994,0.54251"
   id="path4" />
<path
   style="fill:#40a084;stroke-width:0;stroke-dasharray:none"
   d="M 254.05796,240.61431 H 251.123 c -3.46265,1.20313 -7.25233,1.0325 -10.5668,-0.54249 -17.69286,-8.41565 -29.92409,-26.44323 -29.92409,-47.33019 0,-25.10634 17.67783,-48.91206 41.26372,-42.50954 -6.62834,4.55314 -11.08703,23.14508 -11.08703,42.50954 0,20.88696 5.18649,38.91454 12.69206,47.33019 0.1857,0.20063 0.36389,0.38624 0.5571,0.54249 z"
   id="path6" />
<path
   style="fill:#d37250;stroke-width:0;stroke-dasharray:none"
   d="M 379.40415,410.57686 H 159.51248 c -13.19414,0 -25.14965,-5.3519 -33.80006,-13.9988 -8.64102,-8.64691 -13.99509,-20.58821 -13.99509,-33.7864 0,-26.38696 21.39812,-47.7858 47.79515,-47.7858 h 219.89167"
   id="path8" />
<rect
   x="252.12341"
   y="334.47095"
   style="fill:#e6e6e6;stroke-width:0;stroke-dasharray:none"
   width="133.95595"
   height="60.162735"
   id="rect10" />
<path
   style="fill:#f4bd64;stroke-width:0;stroke-dasharray:none"
   d="M 382.73675,241.39994 H 252.33288 v 0.0419 c -0.36828,-0.0243 -0.73906,-0.0419 -1.11483,-0.0419 H 120.8148 v 22.28384 h 12.25876 V 292.7264 H 120.8148 v 22.28383 h 130.40388 c 0.37514,0 0.74592,-0.017 1.11482,-0.0419 v 0.0419 h 130.40388 c 9.10997,0 16.50362,-7.39065 16.50362,-16.49693 v -40.62266 c 0,-9.10754 -7.39427,-16.4907 -16.50425,-16.4907 z"
   id="path12" />
<path
   style="fill:#e88158;stroke-width:0;stroke-dasharray:none"
   d="M 400.57091,342.31159 H 278.39102 c -11.29148,0 -20.47898,9.19254 -20.47898,20.47945 0,11.29567 9.1875,20.47946 20.47898,20.47946 h 122.18051 v 27.30574 H 278.39102 c -13.19414,0 -25.14965,-5.35191 -33.80005,-13.9988 -8.64103,-8.64692 -13.99509,-20.58822 -13.99509,-33.7864 0,-26.38698 21.3981,-47.78581 47.79514,-47.78581 h 122.18051 v 27.30636 z"
   id="path14" />
<rect
   x="133.07668"
   y="255.36435"
   style="fill:#cccccc;stroke-width:0;stroke-dasharray:none"
   width="119.04985"
   height="45.681427"
   id="rect16" />
<path
   style="fill:#dda758;stroke-width:0;stroke-dasharray:none"
   d="M 120.8148,292.7264 H 245.43007 V 263.68378 H 120.8148 v -22.28384 h 130.40388 c 9.10996,0 16.50424,7.38316 16.50424,16.49007 v 40.62266 c 0,9.10629 -7.39365,16.49756 -16.50362,16.49756 H 120.8148 Z"
   id="path18" />
<path
   d="m 400.42647,347.73723 c 3.07876,0 5.57291,-2.49437 5.57291,-5.57063 v -27.30637 c 0,-2.64563 -1.84638,-4.85626 -4.32115,-5.4244 1.89703,-3.25625 2.98998,-7.03627 2.98998,-11.06878 v -40.62267 c 0,-12.16443 -9.90404,-22.06071 -22.07714,-22.06071 h -25.53043 c -3.07875,0 -5.5729,2.49438 -5.5729,5.57065 0,3.07626 2.49476,5.57065 5.5729,5.57065 h 25.53043 c 6.02746,0 10.93071,4.89814 10.93071,10.91879 v 40.62267 c 0,6.00126 -4.86511,10.88316 -10.85943,10.92253 H 270.24769 c 1.84451,-3.22313 2.90495,-6.9494 2.90495,-10.92129 v -40.62266 c 0,-3.97189 -1.06107,-7.69815 -2.90683,-10.9213 h 68.2385 c 3.07875,0 5.57289,-2.49437 5.57289,-5.57065 0,-3.07625 -2.49477,-5.57063 -5.57289,-5.57063 h -36.8588 c 12.01616,-10.85004 19.24661,-26.49574 19.24661,-43.08768 0,-19.33381 -9.47887,-37.47577 -23.58525,-45.14267 -9.32069,-5.06503 -19.85436,-5.27752 -30.28612,-0.76437 -0.63965,-2.6819 -1.53501,-5.76628 -2.76677,-8.8463 h 4.7757 c 14.81919,0 26.87661,-12.05253 26.87661,-26.86572 v -9.40504 C 295.88629,98.49376 293.39152,96 290.31339,96 h -9.40884 c -14.81917,0 -26.8766,12.05255 -26.8766,26.86573 v 0.90938 c -2.58543,-1.70814 -5.61605,-2.74626 -9.16875,-2.74626 -3.07813,0 -5.57289,2.49438 -5.57289,5.57064 0,3.07628 2.49539,5.57066 5.57289,5.57066 4.58563,0 8.00953,6.46065 10.13289,13.09379 -9.17187,-2.95626 -18.3006,-2.26376 -26.49082,2.18751 -14.10762,7.66691 -23.58526,25.80885 -23.58526,45.14268 0,16.59256 7.23109,32.23888 19.24787,43.08892 H 120.67162 c -3.07814,0 -5.5729,2.49438 -5.5729,5.57065 v 22.28384 c 0,3.07687 2.49539,5.57064 5.5729,5.57064 h 6.68773 v 17.90133 h -6.68773 c -3.07814,0 -5.5729,2.49438 -5.5729,5.57064 v 22.28383 c 0,3.0769 2.49539,5.57065 5.5729,5.57065 h 6.10749 C 114.1527,330.20155 106,345.48411 106,362.64355 c 0,14.24381 5.54914,27.64073 15.62763,37.72578 C 131.71112,410.44873 145.1141,416 159.36804,416 H 400.4271 c 3.07876,0 5.5729,-2.49438 5.5729,-5.57064 v -27.30573 c 0,-3.07689 -2.49477,-5.57066 -5.5729,-5.57066 h -8.91614 v -29.81636 h 8.91551 z M 265.17375,122.86573 c 0,-8.67066 7.05663,-15.72381 15.73017,-15.72381 h 3.83594 v 3.83439 c 0,8.67065 -7.05663,15.72382 -15.73018,15.72382 h -3.83593 z m -22.36789,112.02731 c -16.24664,-7.72377 -26.74466,-24.32696 -26.74466,-42.29767 0,-15.13192 7.30422,-29.66949 17.76349,-35.35513 7.81257,-4.24502 16.815,-3.33376 26.03877,2.63751 1.842,1.19313 4.21484,1.19375 6.05934,0 9.22378,-5.97127 18.22745,-6.88253 26.03939,-2.63751 10.45863,5.6844 17.76349,20.22321 17.76349,35.35513 0,17.97071 -10.49802,34.5739 -26.7453,42.29767 -1.97018,0.93689 -38.20434,0.93689 -40.17452,0 z m -116.56134,74.40217 v -11.14192 h 51.73362 c 3.07814,0 5.5729,-2.49438 5.5729,-5.57065 0,-3.07688 -2.49539,-5.57064 -5.5729,-5.57064 H 138.50577 V 269.11067 H 239.71398 V 287.012 h -43.15825 c -3.07813,0 -5.5729,2.49438 -5.5729,5.57064 0,3.07689 2.49539,5.57065 5.5729,5.57065 h 48.73177 c 3.07813,0 5.5729,-2.49438 5.5729,-5.57065 v -29.04261 c 0,-3.07688 -2.49539,-5.57064 -5.5729,-5.57064 H 126.24452 v -11.14191 h 124.83097 c 6.02684,0 10.93072,4.89876 10.93072,10.91878 v 40.62267 c 0,5.98877 -4.84574,10.86253 -10.82317,10.92129 h -91.81562 c -0.0719,0 -0.14256,0.006 -0.21447,0.006 z m 268.60906,95.56413 H 379.25971 278.24659 c -11.27711,0 -21.88081,-4.39189 -29.8597,-12.36631 -2.17651,-2.17563 -5.70545,-2.17563 -7.88135,0 -2.17651,2.17563 -2.17651,5.70316 0,7.87816 1.62005,1.61939 3.33324,3.10752 5.11398,4.48877 h -86.2521 c -11.27648,0 -21.88081,-4.39188 -29.85719,-12.36443 -7.97389,-7.97878 -12.36568,-18.58006 -12.36568,-29.84948 0,-23.20509 18.82519,-42.09204 42.00778,-42.20892 h 86.50344 c -12.6264,9.76692 -20.77911,25.04947 -20.77911,42.20892 0,8.31378 1.86264,16.28318 5.53664,23.68571 1.36807,2.75564 4.71193,3.88314 7.4693,2.51501 2.75675,-1.3675 3.88408,-4.71 2.51604,-7.46628 -2.90307,-5.85002 -4.37555,-12.15317 -4.37555,-18.73444 0,-23.22884 18.86333,-42.13266 42.07969,-42.21079 h 104.48829 c 0.0475,0 0.0951,-0.003 0.14256,-0.003 h 12.11869 V 336.5967 H 278.24659 c -14.36462,0 -26.05189,11.68629 -26.05189,26.0501 0,14.3638 11.68727,26.0501 26.05189,26.0501 H 394.85358 Z M 380.3639,377.55423 H 278.24659 c -8.21898,0 -14.90546,-6.68815 -14.90546,-14.90818 0,-8.22066 6.68648,-14.90818 14.90546,-14.90818 H 380.3639 Z"
   id="path966"
   style="display:inline;stroke-width:0;stroke-dasharray:none" />
</svg>
