<?xml version="1.0" encoding="UTF-8" standalone="no"?>

<svg
   fill="#000"
   fill-opacity="0.7"
   version="1.1"
   id="Capa_1"
   width="512"
   height="512"
   viewBox="0 0 512 512"
   xml:space="preserve"
   xmlns="http://www.w3.org/2000/svg"
   xmlns:svg="http://www.w3.org/2000/svg"><defs
   id="defs21" />

<path
   d="m 139.80368,293.32681 c 0,-25.90241 8.546,-49.81973 22.92436,-69.15411 C 147.67127,210.6366 127.83015,202.33163 105.99936,202.33163 59.05707,202.33163 21,240.40285 21,287.35127 c 0,0 19.99806,178.63799 84.99936,178.63799 25.12161,0 43.49958,-26.70758 56.62236,-59.4464 -15.31497,-50.40209 -21.50678,-100.71302 -22.72185,-111.53987 z"
   id="path2"
   /><path
   d="m 105.99936,196.17379 c 28.43775,0 53.17459,-15.82503 65.91766,-39.13973 -12.72282,-17.28346 -20.28158,-38.58268 -20.28158,-61.644175 0,-10.462243 1.58466,-20.559877 4.46539,-30.095406 -13.28985,-11.940934 -30.82233,-19.283747 -50.10147,-19.283747 -41.45421,0 -75.06108,33.619956 -75.06108,75.084058 0,41.45904 33.60687,75.079 75.06108,75.079 z"
   id="path4"
   /><path
   d="m 406.00065,202.33163 c -21.83079,0 -41.66684,8.30497 -56.72867,21.84107 14.38847,19.33438 22.92435,43.2517 22.92435,69.15411 l -0.0962,1.67112 c -1.21507,10.83698 -7.40688,61.13778 -22.72185,111.53986 13.12278,32.73882 31.50075,59.44641 56.62236,59.44641 65.0013,0 84.99936,-178.63799 84.99936,-178.63799 0,-46.94336 -38.05707,-85.01458 -84.99936,-85.01458 z"
   id="path6"
   /><path
   d="m 340.08806,157.029 c 12.74306,23.3147 37.46978,39.13973 65.91766,39.13973 41.4542,0 75.06107,-33.61996 75.06107,-75.079 0,-41.464106 -33.61193,-75.084062 -75.06107,-75.084062 -19.28421,0 -36.81163,7.337749 -50.10148,19.283747 2.87567,9.540593 4.47046,19.633163 4.47046,30.095406 -0.0101,23.061499 -7.56889,44.360719 -20.28664,61.644179 z"
   id="path8"
   /><path
   d="m 256.00001,192.10739 c -55.88826,0 -101.19526,45.31782 -101.19526,101.21942 0,0 23.81542,212.67319 101.19526,212.67319 77.37983,0 101.19018,-212.67319 101.19018,-212.67319 0,-55.9016 -45.30193,-101.21942 -101.19018,-101.21942 z"
   id="path10"
   /><ellipse
   cx="256"
   cy="95.384819"
   id="circle12"
   rx="89.36348"
   ry="89.384819"
   /></svg>
